<svg width="105" height="104" viewBox="0 0 105 104" fill="none" xmlns="http://www.w3.org/2000/svg">
<path d="M58.1454 89.8161C56.74 89.2935 54.376 89.2455 52.3774 90.8721C50.3787 89.2455 48.0147 89.2935 46.6094 89.8161C45.4347 90.2535 44.5134 90.5455 42.7827 90.5308C44.4974 94.1055 48.1507 96.5708 52.3774 96.5708C56.604 96.5708 60.2574 94.1055 61.972 90.5308C60.2414 90.5455 59.32 90.2535 58.1454 89.8161Z" fill="#D6C278"/>
<path d="M52.3787 8.84719e-05C23.452 8.84719e-05 0 23.4508 0 52.3788C0 77.1748 17.2333 97.9481 40.376 103.375C21.9853 93.5361 14.4867 70.9761 23.3547 52.0788C24.788 59.5414 29.6533 66.1908 36.9227 69.6414C27.4413 47.4654 34.4227 21.3961 53.9893 6.97876C50.14 20.1588 56.052 32.2188 68.7333 41.3241C83.2387 51.7374 83.852 72.9868 71.0507 84.4734C76.136 83.2894 80.8667 80.4894 84.4 76.2028C82.22 87.4348 75.1773 97.5974 64.3787 103.375C87.5227 97.9481 104.755 77.1748 104.755 52.3788C104.755 23.4508 81.3053 8.84719e-05 52.3787 8.84719e-05Z" fill="#D6C278"/>
<path d="M90.5762 99.9519H91.5655V103.377H92.0415V99.9519H93.0308V99.5052H90.5762V99.9519ZM97.4095 99.5052C96.6708 99.5052 96.0815 99.8265 95.7948 100.357C95.5095 99.8265 94.9202 99.5052 94.1802 99.5052H93.9242V103.377H94.4015V99.9825H94.4188C95.1108 99.9825 95.5575 100.471 95.5575 101.221V102.185H96.0335V101.221C96.0335 100.471 96.4802 99.9825 97.1708 99.9825H97.1882V103.377H97.6655V99.5052H97.4095Z" fill="#D6C278"/>
</svg>
