<svg width="164" height="189" viewBox="0 0 164 189" fill="none" xmlns="http://www.w3.org/2000/svg">
<path d="M8.20933 118.503C6.99067 117.917 5.67467 117.849 4.34933 117.849H0V134.217H2.54267C2.54267 133.29 2.48133 132.327 2.87867 131.462C3.52 130.069 5.01333 129.399 6.31733 128.767C7.716 128.091 9.26667 127.431 10.1947 126.121C11.0173 124.959 11.2413 123.421 11.0013 122.033C10.7253 120.446 9.64 119.193 8.20933 118.503ZM8.084 124.761C7.48 125.665 6.45867 126.173 5.512 126.645C4.47867 127.161 3.41467 127.673 2.54267 128.446V120.215H4.95333C6.30267 120.215 7.78933 120.63 8.32267 122.017C8.648 122.862 8.592 123.997 8.084 124.761Z" fill="black"/>
<path d="M26.9063 118.302C24.7036 117.057 21.5463 117.425 19.8436 119.343C19.0156 120.275 18.5956 121.475 18.521 122.709C18.5023 123.021 18.509 134.217 18.509 134.217H21.0263V128.794C22.509 128.606 24.169 128.75 25.413 129.654C26.5276 130.463 27.017 131.738 27.0196 133.085C27.0196 133.462 27.0196 134.217 27.0196 134.217H29.5383V123.241C29.5356 121.227 28.7103 119.322 26.9063 118.302ZM26.881 128.073C25.385 126.555 23.0903 126.025 21.0263 126.354V123.679C21.0263 123.187 21.0143 122.695 21.141 122.214C21.3823 121.291 22.0836 120.53 22.9903 120.226C23.9356 119.907 25.0303 120.051 25.833 120.65C26.6383 121.251 27.0103 122.175 27.0196 123.162C27.0263 123.93 27.0196 124.699 27.0196 125.467V128.231C26.973 128.179 26.9303 128.122 26.881 128.073Z" fill="black"/>
<path d="M46.8496 128.135C46.559 127.981 46.2483 127.853 45.923 127.75C46.731 127.306 47.531 126.758 48.0963 126.018C48.6203 125.331 48.919 124.539 49.0136 123.683C49.2096 121.889 48.623 120.178 47.1456 119.083C45.1776 117.622 42.6883 117.849 40.3776 117.849H37.9736V134.217H40.5163C40.5163 133.731 40.499 133.242 40.5216 132.757C40.5723 131.675 41.0496 130.631 41.995 130.053C42.919 129.489 44.1803 129.422 45.1656 129.863C46.159 130.309 46.803 131.263 46.9643 132.325C47.059 132.943 47.0136 133.593 47.0136 134.217H49.5816C49.5816 133.318 49.631 132.403 49.4323 131.521C49.103 130.066 48.1643 128.838 46.8496 128.135ZM43.0096 120.215C44.6283 120.215 46.2656 121.006 46.4416 122.777C46.527 123.629 46.3403 124.473 45.7736 125.127C45.1536 125.842 44.2296 126.274 43.3923 126.677C42.3763 127.166 41.3563 127.675 40.5163 128.439V120.215H43.0096Z" fill="black"/>
<path d="M57.4888 120.14C58.3181 119.919 59.1768 119.816 60.0314 119.763V117.848H57.4888V120.14Z" fill="black"/>
<path d="M57.4888 121.575V134.217H60.0314V121.198C59.1768 121.234 58.3168 121.359 57.4888 121.575Z" fill="black"/>
<path d="M77.0045 126.36C76.0925 125.644 75.0005 125.232 73.9218 124.838C72.9218 124.474 71.7591 124.088 71.0365 123.263C70.3685 122.502 70.5178 121.295 71.2058 120.603C71.9178 119.888 73.0605 119.728 73.9978 120.026C75.0565 120.36 75.6951 121.314 75.6951 122.407H78.2125C78.2125 121.207 77.8285 120.054 77.0031 119.17C76.2031 118.314 75.1005 117.804 73.9471 117.654C72.7485 117.496 71.5058 117.652 70.4458 118.256C69.4511 118.822 68.6125 119.72 68.2565 120.823C67.9165 121.876 67.9911 123.191 68.5325 124.167C69.1365 125.254 70.2271 125.907 71.3405 126.383C72.5511 126.899 73.9471 127.216 75.0298 127.988C75.4658 128.299 75.8285 128.698 75.9578 129.23C76.0845 129.75 76.0378 130.336 75.7965 130.816C75.2085 131.986 73.7445 132.343 72.5458 132.112C71.2018 131.855 70.2311 130.732 70.2311 129.356H67.7378C67.7378 130.688 68.1711 131.944 69.1245 132.892C70.0685 133.834 71.3791 134.342 72.6951 134.447C74.0751 134.558 75.4991 134.278 76.6418 133.47C77.6925 132.724 78.4018 131.57 78.5391 130.283C78.6978 128.782 78.2125 127.31 77.0045 126.36Z" fill="black"/>
<path d="M100.7 126.713C101.263 126.014 101.811 125.278 102.183 124.457C102.549 123.646 102.681 122.749 102.583 121.865C102.395 120.182 101.231 118.786 99.7135 118.093C98.1628 117.385 96.2095 117.418 94.6922 118.194C93.1602 118.977 92.0615 120.471 91.9695 122.213C91.8748 123.993 92.7028 125.566 94.1028 126.637L95.5375 124.799C95.0228 124.307 94.6148 123.711 94.4975 122.997C94.3842 122.309 94.5015 121.614 94.9202 121.047C95.7415 119.937 97.3908 119.602 98.6108 120.215C99.2202 120.521 99.7322 121.051 99.9508 121.703C100.179 122.382 100.071 123.162 99.7815 123.805C99.4882 124.454 99.0215 125.009 98.5802 125.561C96.8802 127.687 95.1802 129.813 93.4815 131.938C92.8748 132.698 92.2668 133.458 91.6602 134.217H103.168V131.875H96.5668L100.7 126.713Z" fill="black"/>
<path d="M124.622 120.039C122.086 117.561 118.114 116.894 114.896 118.379C111.649 119.878 109.694 123.325 110.032 126.877C110.362 130.359 112.965 133.345 116.348 134.202C119.78 135.071 123.545 133.791 125.6 130.879C127.665 127.951 127.605 123.841 125.449 120.978C125.197 120.645 124.921 120.331 124.622 120.039ZM124.056 128.387C123.062 130.719 120.718 132.218 118.178 132.065C115.717 131.918 113.58 130.154 112.866 127.809C112.134 125.401 113.004 122.711 115.001 121.186C117.008 119.655 119.849 119.601 121.922 121.037C124.24 122.642 125.161 125.787 124.056 128.387Z" fill="black"/>
<path d="M143.308 126.713C143.87 126.014 144.418 125.278 144.79 124.457C145.157 123.646 145.289 122.749 145.19 121.865C145.001 120.182 143.838 118.786 142.321 118.093C140.77 117.385 138.817 117.418 137.3 118.194C135.768 118.977 134.669 120.471 134.577 122.213C134.482 123.993 135.309 125.566 136.71 126.637L138.145 124.799C137.63 124.307 137.222 123.711 137.105 122.997C136.992 122.309 137.108 121.614 137.528 121.047C138.349 119.937 139.998 119.602 141.218 120.215C141.828 120.521 142.34 121.051 142.558 121.703C142.786 122.382 142.678 123.162 142.389 123.805C142.096 124.454 141.629 125.009 141.186 125.561C139.488 127.687 137.788 129.813 136.089 131.938C135.481 132.698 134.874 133.458 134.268 134.217H145.776V131.875H139.174L143.308 126.713Z" fill="black"/>
<path d="M161.236 122.23V127.778C160.026 126.915 158.512 126.653 157.246 125.894C156.151 125.239 155.803 124.094 155.798 122.882C155.791 121.695 155.798 117.849 155.798 117.849H153.254C153.254 117.849 153.251 121.255 153.254 122.959C153.256 124.703 153.686 126.409 155.114 127.531C155.994 128.223 157.052 128.65 158.102 129.017C159.038 129.345 160.032 129.755 160.675 130.546C161.18 131.169 161.236 131.914 161.236 132.682V134.217H163.679V122.23H161.236Z" fill="black"/>
<path d="M80.7205 174.705C80.7205 182.126 74.7005 188.145 67.2791 188.145C59.8565 188.145 53.8418 182.126 53.8418 174.705C53.8418 167.282 59.8565 161.266 67.2791 161.266C74.7005 161.266 80.7205 167.282 80.7205 174.705ZM67.2791 163.506C61.0951 163.506 56.0818 168.521 56.0818 174.705C56.0818 180.889 61.0951 185.903 67.2791 185.903C73.4658 185.903 78.4805 180.889 78.4805 174.705C78.4805 168.521 73.4658 163.506 67.2791 163.506Z" fill="#FCB030"/>
<path d="M109.839 174.705C109.839 182.126 103.821 188.145 96.3995 188.145C88.9768 188.145 82.9595 182.126 82.9595 174.705C82.9595 167.282 88.9768 161.266 96.3995 161.266C103.821 161.266 109.839 167.282 109.839 174.705ZM96.3995 163.506C90.2128 163.506 85.2008 168.521 85.2008 174.705C85.2008 180.889 90.2128 185.903 96.3995 185.903C102.585 185.903 107.599 180.889 107.599 174.705C107.599 168.521 102.585 163.506 96.3995 163.506Z" fill="#00A652"/>
<path d="M52.7237 148.95C45.2997 148.95 39.2837 154.964 39.2837 162.386C39.2837 169.808 45.2997 175.825 52.7237 175.825C53.1157 175.825 53.501 175.802 53.8864 175.77C53.8597 175.42 53.841 175.064 53.841 174.705C53.841 174.304 53.8637 173.914 53.8957 173.525C53.509 173.562 53.1197 173.582 52.7237 173.582C46.537 173.582 41.5224 168.572 41.5224 162.386C41.5224 156.2 46.537 151.185 52.7237 151.185C58.9077 151.185 63.9224 156.2 63.9224 162.386C63.9224 167.353 60.6877 171.561 56.2077 173.028C56.1264 173.576 56.081 174.137 56.081 174.705C56.081 174.938 56.0904 175.164 56.1037 175.394C61.889 173.892 66.1597 168.636 66.1597 162.386C66.1597 154.964 60.145 148.95 52.7237 148.95Z" fill="#0082C7"/>
<path d="M110.957 148.948C103.896 148.948 98.1108 154.393 97.5654 161.316C98.3228 161.381 99.0641 161.508 99.7814 161.697C100.137 155.833 105.005 151.185 110.957 151.185C117.145 151.185 122.159 156.2 122.159 162.384C122.159 168.572 117.145 173.582 110.957 173.582C105.345 173.582 100.692 169.45 99.8854 164.062C99.1468 163.821 98.3708 163.656 97.5734 163.57C98.1721 170.434 103.936 175.825 110.957 175.825C118.379 175.825 124.396 169.808 124.396 162.384C124.396 154.964 118.379 148.948 110.957 148.948Z" fill="#E8384F"/>
<path d="M81.8405 148.948C74.7765 148.948 68.9898 154.4 68.4458 161.316C69.2058 161.384 69.9445 161.513 70.6645 161.697C71.0205 155.833 75.8858 151.185 81.8405 151.185C88.0258 151.185 93.0391 156.2 93.0391 162.384C93.0391 167.353 89.8045 171.561 85.3271 173.028C85.2471 173.578 85.2005 174.137 85.2005 174.705C85.2005 174.937 85.2071 175.164 85.2231 175.394C91.0058 173.892 95.2791 168.636 95.2791 162.384C95.2791 154.964 89.2631 148.948 81.8405 148.948Z" fill="black"/>
<path d="M82.9601 174.705C82.9601 174.303 82.9801 173.914 83.0147 173.525C82.6267 173.562 82.2361 173.582 81.8401 173.582C76.2241 173.582 71.5747 169.45 70.7627 164.063C70.0241 163.821 69.2534 163.657 68.4561 163.573C69.0547 170.434 74.8174 175.825 81.8401 175.825C82.2321 175.825 82.6201 175.802 83.0027 175.77C82.9734 175.419 82.9601 175.063 82.9601 174.705Z" fill="black"/>
<path d="M87.6073 89.8161C86.202 89.2935 83.838 89.2455 81.8393 90.8721C79.8406 89.2455 77.4766 89.2935 76.0713 89.8161C74.8966 90.2535 73.9753 90.5455 72.2446 90.5308C73.9593 94.1055 77.6126 96.5708 81.8393 96.5708C86.066 96.5708 89.7193 94.1055 91.434 90.5308C89.7033 90.5455 88.782 90.2535 87.6073 89.8161Z" fill="#D6C278"/>
<path d="M81.8406 8.84719e-05C52.9139 8.84719e-05 29.4619 23.4508 29.4619 52.3788C29.4619 77.1748 46.6952 97.9481 69.8379 103.375C51.4472 93.5361 43.9486 70.9761 52.8166 52.0788C54.2499 59.5414 59.1152 66.1908 66.3846 69.6414C56.9032 47.4654 63.8846 21.3961 83.4512 6.97876C79.6019 20.1588 85.5139 32.2188 98.1952 41.3241C112.701 51.7374 113.314 72.9868 100.513 84.4734C105.598 83.2894 110.329 80.4894 113.862 76.2028C111.682 87.4348 104.639 97.5974 93.8406 103.375C116.985 97.9481 134.217 77.1748 134.217 52.3788C134.217 23.4508 110.767 8.84719e-05 81.8406 8.84719e-05Z" fill="#D6C278"/>
<path d="M120.038 99.9519H121.027V103.377H121.503V99.9519H122.493V99.5052H120.038V99.9519ZM126.871 99.5052C126.133 99.5052 125.543 99.8265 125.257 100.357C124.971 99.8265 124.382 99.5052 123.642 99.5052H123.386V103.377H123.863V99.9825H123.881C124.573 99.9825 125.019 100.471 125.019 101.221V102.185H125.495V101.221C125.495 100.471 125.942 99.9825 126.633 99.9825H126.65V103.377H127.127V99.5052H126.871Z" fill="#D6C278"/>
</svg>
